<?xml version="1.0" encoding="utf-8"?>
<!-- Generator: Adobe Illustrator 23.0.2, SVG Export Plug-In . SVG Version: 6.00 Build 0)  -->
<svg version="1.1" id="Layer_1" xmlns="http://www.w3.org/2000/svg" xmlns:xlink="http://www.w3.org/1999/xlink" x="0px" y="0px"
	 viewBox="0 0 2316 2500" style="enable-background:new 0 0 2316 2500;" xml:space="preserve">
<style type="text/css">
	.st0{fill:#F5EFE0;}
</style>
<g>
	<path class="st0" d="M738.5,1988.5c0,78.9-64.5,150.6-150.6,150.6s-150.6-64.5-150.6-150.6v-645.3c0-78.9,64.5-150.6,150.6-150.6
		s150.6,64.5,150.6,150.6V1988.5z M1168.8,2160.6c0,78.9-64.5,150.6-150.6,150.6s-143.4-64.5-143.4-150.6v-982.3
		c0-78.9,64.5-150.6,150.6-150.6c86,0,150.6,64.5,150.6,150.6v982.3H1168.8z M301.2,1845.1c0,78.9-64.5,150.6-150.6,150.6
		S0,1931.2,0,1845.1v-351.3c0-78.9,64.5-150.6,150.6-150.6s150.6,71.7,150.6,150.6V1845.1z M1599,2318.4
		c0,78.9-64.5,150.6-150.6,150.6c-78.9,0-143.4-71.7-143.4-150.6v-1305c0-78.9,64.5-150.6,150.6-150.6
		c78.9,0,150.6,64.5,150.6,150.6v1305H1599z"/>
	<path class="st0" d="M2072.2,2253.8c-28.7,0-50.2-7.2-78.9-14.3l-179.3-57.4c-28.7-7.2-50.2-43-35.9-71.7
		c7.2-28.7,43-50.2,71.7-35.9l186.4,57.4c35.9,14.3,78.9,7.2,114.7-21.5c35.9-21.5,50.2-64.5,50.2-100.4V812.6
		c0-57.4-35.9-107.6-86-121.9L358.5,160.1c-35.9-14.3-78.9-7.2-114.7,14.3c-28.7,28.7-50.2,64.5-50.2,107.6v824.6
		c0,35.9-28.7,57.4-57.4,57.4c-35.9,0-57.4-28.7-57.4-57.4V282c0-78.9,35.9-150.6,100.4-193.6c64.5-50.2,143.4-57.4,215.1-35.9
		l1749.5,530.6c100.4,28.7,172.1,129.1,172.1,236.6v1197.4c0,78.9-35.9,150.6-100.4,200.8
		C2172.6,2232.3,2122.4,2253.8,2072.2,2253.8"/>
</g>
</svg>
