<?xml version="1.0" encoding="utf-8"?>
<!-- Generator: Adobe Illustrator 23.0.2, SVG Export Plug-In . SVG Version: 6.00 Build 0)  -->
<svg version="1.1" id="Layer_1" xmlns="http://www.w3.org/2000/svg" xmlns:xlink="http://www.w3.org/1999/xlink" x="0px" y="0px"
	 viewBox="0 0 800 800" style="enable-background:new 0 0 800 800;" xml:space="preserve">
<style type="text/css">
	.st0{fill:#F5EFE0;}
</style>
<path class="st0" d="M828,383.3c23.7,6,47,12.3,77.9,20.3c-15.1-29.1-26.4-54-40.4-77.2c-8.8-14.3-7.1-23.5,4-35.4
	c20.4-22.1,39.3-46,58.9-69c-0.9-1.8-1.8-3.8-2.8-5.7c-24,6.3-48.6,10.6-71.8,19.1c-24.4,8.9-39.7,5.5-51-19.8
	c-8.9-20.3-22.7-38.1-38.6-63.8c-6,31.2-12.5,55.3-14.8,80.2c-2.3,25.5-12.5,39.7-38.7,45c-24.7,5.1-48.6,15.1-80.2,25.4
	c31,13.2,55.8,23.8,83.8,36c-17.1,11.2-31.4,20.8-46.1,29.8c-3.8,2.3-10,4.6-13.2,3.1c-27.4-12.9-56.6-23.5-80.9-40.6
	c-23.1-16.3-17.2-46,10.1-57c32.6-13.2,66.2-23.7,100.1-33.5c15.5-4.6,22.1-12.1,24-28c3.4-26.1,8.8-52,14-77.9
	c1.7-8.5,4.2-17.2,8.1-24.9c15.7-30.7,41.8-32.9,61.3-4.6c14.6,21.2,28.4,42.9,40,65.6c9.7,18.8,20.8,22.3,40.3,15.8
	c29.5-9.7,59.8-18.1,90.4-23.5c13.1-2.3,27.7,5.1,41.7,8.1c-3.8,13.8-4,30.3-11.8,41c-20.8,28.4-44.6,54.6-68.1,80.9
	c-9.8,11.2-12.1,20-4,33.7c14.8,24.7,29.1,50.1,39.7,76.7c4.9,12.5,5.7,32.3-1.1,41.8c-7.1,9.2-26.6,14.8-39.5,12.9
	c-26-3.8-53.3-9.2-75.3-22.4c-12.3-7.4-14.6-31.4-21.4-47.8C823.9,386.1,826,384.5,828,383.3L828,383.3z"/>
<path class="st0" d="M47.2,634.2c-4,27.7-7.7,53.6-11.7,81.3c-16.3,0-31.8,0-50.1,0c5.1-41.7,10-81.6,15.1-121.7
	c2.6-20.6,5.2-41.2,8.5-61.8c9.7-60.7,60.1-109.4,118.5-115.3c87.9-8.5,144.3,68.9,109.3,149.9C204.4,641.8,128.2,669.8,47.2,634.2
	L47.2,634.2z M193.2,525.8c0.3-33.2-23.8-57.8-57-57.8c-40.1,0-75.6,35.2-75.5,75c0.2,32.7,25.2,56.9,58.6,56.9
	C157.9,599.7,192.8,564.7,193.2,525.8L193.2,525.8z"/>
<path class="st0" d="M-207.3,587.3c18-9.7,34.7-18.6,52.9-28.4c5.1,8.5,9.1,16.1,14.1,23.1c14.3,19.7,37,22,56.7,6.5
	c18.1-14.3,19.2-28.4,1.8-49.3c-14.8-17.8-30.6-34.7-46.7-51.8c-24.1-25.7-38.1-54.6-23.5-89.3c15.8-37.7,45.3-59,86.5-63.3
	c39.2-4.2,65.8,14.1,86.2,48.7c-16.1,12.3-32.3,24.6-48.4,36.9c-8.1-8.8-14.1-20.8-22.4-22.7c-13.1-3.1-30.4-3.5-41.2,2.8
	c-15.7,9.7-5.8,23.7,3.8,34.4c15.1,16.6,29.8,33.7,45.8,49.2c27.1,26.4,38.6,57.3,26.4,93.8c-13.2,39.5-41.2,64.7-82.2,73
	C-155.1,662.7-188.7,643.4-207.3,587.3L-207.3,587.3z"/>
<path class="st0" d="M488.5,644.9c-18.9,0-34,0-51.6,0c4.6-34.6,9.7-67.5,12.9-100.8c2.6-27.4-1.7-53.5-27.7-69.6
	c-21.1-13.1-54.1-8.3-76.4,10.8c-22.1,18.9-33.8,42.7-26,72.6c10,38.1,51.2,53.2,89.3,32.9c6.8-3.8,13.4-8.1,22.1-13.7
	c-1.5,11.2-3.1,19.7-4.2,28.4c-4.9,38.1-11.4,44.1-49,45.8c-81.5,3.8-132.2-61.9-107.9-139.9c18.8-59.9,77.3-99.8,140-95.3
	c52.4,3.8,93.9,46.1,91.9,98.7C500.6,557.8,493.4,600.5,488.5,644.9L488.5,644.9z"/>
<path class="st0" d="M716.1,475.4c32.9-36,60.7-66.6,89.5-98.1c12.6,32.6,15.8,59.9-14.8,82.8c-13.8,10.1-24.1,25.2-36.9,38.6
	c34.6,48.6,68.2,96.2,105.1,148c-23.5,0-42.9,1.1-61.9-0.8c-6-0.6-12.6-8.5-16.8-14.6C758,598.5,736.3,565,710,525.5
	c-4.9,34.7-11.4,62.6-12.3,90.5c-0.8,25.5-10.8,34-34.7,30.3c-7.5-1.1-15.5-0.8-26.1-1.4c6.5-50.9,12.5-99.8,18.9-148.8
	c3.8-29.4,9.7-58.6,11.5-88.1c1.1-19.1,8.5-31.2,24.9-40c12.5-6.6,24.1-15.1,40.4-25.4C726.9,387.8,721.8,428.5,716.1,475.4
	L716.1,475.4z"/>
<path class="st0" d="M635.1,473.2c-9.5,0-15.8,0.3-22.1,0c-18.8-1.1-28,8-30.3,26.1c-5.1,40.4-12.5,80.7-15.5,121.1
	c-1.5,21.2-8.9,28.6-29.1,25.5c-7.7-1.1-15.7-0.2-26.9-0.2c4.9-39.3,9.2-76.4,14-113.3c1.8-15.1,4-30.1,6.6-45
	c7.5-44.9,33.2-66.2,79-66.4c8,0,16.1,0.2,24,0.6c1.5,0,2.8,1.4,5.7,2.5C639.1,439.4,637.3,455.1,635.1,473.2L635.1,473.2z"/>
</svg>
