<?xml version="1.0" encoding="utf-8"?>
<!-- Generator: Adobe Illustrator 23.0.2, SVG Export Plug-In . SVG Version: 6.00 Build 0)  -->
<svg version="1.1" id="Layer_1" xmlns="http://www.w3.org/2000/svg" xmlns:xlink="http://www.w3.org/1999/xlink" x="0px" y="0px"
	 viewBox="0 0 800 800" style="enable-background:new 0 0 800 800;" xml:space="preserve">
<style type="text/css">
	.st0{fill:#F5EFE0;}
</style>
<g>
	<path class="st0" d="M795.6,276.3c-3.7-23.3-9.8-45.8-18.3-62.1c-1-2-2.6-4-4.5-5.9c-4.2-4.2-10.5-8.1-16.9-10.3
		c-6.8-2.4-14-2.8-19.8,0.2c-1.5,0.8-2.9,1.8-4.1,3c-3.7,3.8-6.8,8.3-10,12.9c-3.5,5.1-7,10.2-11.2,13.8c-4.9,4.1-10.9,6.7-16.7,9
		c-2.5-6.1-5.4-11.6-8.7-16.8c-3.9-6.2-8.4-12.1-13.3-17.9c-4-4.8-7.9-8.4-12.1-11.6c-4.2-3.2-8.6-5.9-13.6-9.1
		c-13.5-8.5-25-18.6-36.8-28.9c-5.3-4.7-10.7-9.4-16-13.8c-28-23.1-54.1-34.2-82-36c-27.7-1.7-57,5.9-91.5,20.4
		c-16.7,7-29.1,15.3-39.8,25.3c-10.3,9.5-19.1,20.5-28.7,33.3c-5.6,0.4-10.5,1.2-15.6,3.3c-5.6,2.2-11.2,5.8-17.9,11.8
		c-4.8,4.2-9.3,8.4-13.8,12.7c-4.1,4-8.1,8.1-12.1,12.2c-31.5,5.1-57.1,10.6-80,19.5c-23.5,9.1-44.2,21.6-65.4,40.4
		c-8.7,7.7-16.2,15.8-22.8,24.4c-6.5,8.5-12,17.4-16.8,26.7c-4.3,4.7-8.5,9.5-13.1,13.6c-4.5,4-9.3,7.5-14.7,9.5l0,0
		c-3.1,1.2-4.4,1.9-4.6,1.9c-0.2-0.1-0.2-0.6-0.5-1.4c7.7-7.4,8.9-18.2,9.6-28.9c0.9,1.1,1.8,2.5,2.7,3.9c1,1.6,2.1,3.2,3.3,4.8
		l5.2,6.6l1.8-8.2c1.5-6.9,2.7-16.1,0.9-24.1c-1.2-5.2-3.6-9.8-7.7-13c0.4-1,0.8-2,1.2-3c1.3-3.4,2.7-6.8,3.8-10.1l2.3-6.5l-6.7,1.2
		c-9,1.6-28.3,12.2-41.9,26.3c-5,5.2-9.4,11-12.2,17.1c-3,6.3-4.3,12.9-3.1,19.6c1,5.8,3.9,11.5,9.2,16.8c1,3.9,1.8,7.2,2.8,10.2
		c1.1,3.4,2.3,6.5,3.7,9.6c4,8.2,10.3,13.3,17.6,15.6c5.9,1.9,12.4,2,18.7,0.6c-1.2,7.2-2,14.7-2.3,22.9c-0.4,10.7,0,22.6,1.2,36.4
		c0.3,3,0.6,6.3,1.2,10c0.4,3.1,1,6.1,1.5,9.1c-1.2,3.2-2.4,6.5-3.6,9.7c-1.9,5-3.7,10.1-5.6,15.1c-4.1,4-8.1,8.1-12.2,12.1
		c-3.8,3.8-7.6,7.5-11.4,11.3c-0.3,0.3-1.6,1.5-2.8,2.7c-7.7,7.4-9.2,8.9-7,21.9c1.3,8,4,16.1,8.1,23.9c3.8,7.2,8.9,14.2,15.4,20.7
		c8.1,8.1,21.4,18.3,35.4,23.6c8,3,16.2,4.5,23.9,3.3c-0.4,1.2-0.8,2.4-1.2,3.6c-1.2,3.4-2.6,6.7-4.1,10
		c-9.5,20.7,0.3,31.6,15.4,38.5c7.5,3.4,16.5,5.8,24.9,8c1.7,0.4,3.4,0.9,5.6,1.5c9.9,2.7,26.9,7.6,42.5,8.6
		c17,1.1,32.4-2.4,36.5-17.7c1.6-6.1,2.6-10.7,3-15.2c0.4-4.2,0.2-8.5-0.3-13.7c4.8-10.7,6.9-13.8,10.5-19c0.7-1,1.5-2.3,1.8-2.6
		c3.8-5.6,5.6-9.6,6.2-14.1c0.6-4.3,0.1-8.7-0.7-15.3c-0.1-0.6-0.2-1.5-0.4-2.8c10,1.3,19.8,2,29.5,2c5,0,9.9-0.1,14.9-0.4
		c-1.3,0.7-2.5,1.3-3.9,2c-0.6,0.3-1.2,0.6-1.8,0.9c-13.1,6.8-13.7,19.6-9.6,32.7c3.7,11.9,11.3,24,16.1,31.4
		c10.1,15.5,19.7,28.6,31.3,35.8c12.2,7.5,26.1,8.4,44.1-1.4c9.2-5,12-10,15.9-16.8c1.2-2.1,2.5-4.3,4-6.6
		c3.8-2.5,13.2-10.3,22.4-17.9c3.1-2.6,6.3-5.2,9.8-8.1c2.4,1.8,5.4,3,9,3.9c4.6,1.1,10.1,1.6,16.8,2.1c4.9,0.4,21.1,0.4,31.5,0.3
		c3.2,0,5.9,0,7.5,0c10.8,0.1,19.4-0.5,26-4.2c7-4,11.1-11,12-23.6c0.4-5.6,0.5-9-0.3-12.6c-0.7-3.3-2.1-6.3-4.6-10.7
		c-0.1-5.4-0.3-10.9-0.4-16.3c-0.2-5.8-0.3-11.6-0.5-17.3c-0.2-6.8-0.9-12.3-2.3-17.8c-1.4-5.4-3.3-10.6-5.9-16.8
		c-1.8-4.2-3.2-8.1-4.6-11.9l-3.8,1.4l0.6-0.2l3.2-1.2v0c-2.3-6.1-4.5-12-7.6-18.3c0.2-1.2,0.4-2.5,0.6-3.9c2,1.9,4,3.9,6,5.8
		l8.8,8.5c6.7,6.5,12.9,12.4,20.2,16.7c7.5,4.4,15.9,7,26.8,6.5c11.4-0.5,23.6-5.3,33.7-12.8c9.7-7.2,17.5-16.9,20.8-27.6
		c0.9-3.1,1.9-6.2,2.8-9.3c0.8-2.5,1.5-4.9,2.3-7.4c16,2.7,33.2,3.6,49.8,1.9c16-1.7,31.5-5.8,44.8-12.9
		c19.6-10.5,34.3-25.9,44.9-44.2l0,0c11.8-20.5,18.4-44.6,20.9-69.4C800.9,329.5,799.8,302.4,795.6,276.3L795.6,276.3z M588.2,443.6
		c-9.2-3.1-15.6-7.6-23.8-12.7c2.2,9.9,3.2,20.5,0.3,30.4c-4.7,15.8-12.2,41.5,9.2,46.3c8.1,1.8,11.8,1.5,23.3-4.4
		c-9.3,2.1-14,1.6-20.4,0.4c-5.8-1.1-8.9-4.7-10.5-9.1c2,1.5,5.3,2.3,11,3.6c15.9,3.8,31-3.8,33.9-14.8c1.7-6.4,1.4-9.8,5.1-18.6
		c3.3,1,6.7,1.9,10.2,2.8c-2,6.4-3.9,12.8-5.9,19.2c-5.1,16.6-25,30-42.5,29.7c-16.2-0.3-26.5-10.4-37.7-20.4
		c-7.7-6.9-15.1-13.4-22.5-19.9c-20.2-6.4-36.3-13.8-55.1-27.7c13.3,15.7,22.4,24.3,40.9,32.1c-2.7,27.6-12.3,47.7-20.4,74
		c-3.7,11.9-32.9,59.7-41,64.4c-5.8,3.3-41.9,33.7-48.7,37.8c-5.1,6.7-9.5,16-17.1,20c-23.2,12.3-38.1-11.2-50.6-31
		c-5.7-9-21.5-35-7.7-42.3c13-6.9,20.3-11.8,33.5-20.5c1.9,3.6,5.3,7,7.5,10.5c-0.5-3.9-1-7.8-1.4-11.6c-0.9-7-0.8-12.7-0.3-19.8
		c0.5-6.8,1.1-13.7,1.6-20.6c-2,7-6,13.9-8,20.9c-0.8,2.8-1.5,5-1.8,7.1c-29.8,6.1-59.3,6.5-89.1,1.2c-1.9-11-4.2-22.5-6.2-30.7
		c-0.6,9.2-0.2,34.7-0.3,49c0,11.1-0.5,14.8-6.2,24.3c-5.3,8.8-7.6,10.8-15.1,25.7c0.6,9.4,0.6,15.6-1.9,24.5
		c-4.1,14.8-46,3.3-57,0.3c-13.6-3.7-41.7-9.3-34.6-27.4c6.2-16,10.2-32.8,13.2-55.1c-24.9-35.9-48.1-85.1-52.5-128.6
		c-3.5-33.8-1.4-54.6,5.9-75.3c11.6-32.8,27.8-61.2,53.9-84c35.1-30.8,68-43.2,119.4-51c-12.4,13.8-24.6,28.5-37.9,44.2
		c-13.5,15.9-21.5,31.9-30.1,49.3c-11.8,24-11.6,33.1,4.1,54.2c13.5,18.2,20.8,26.3,26.7,44.1c-4.9,10-6.6,18.5-8.3,32.3
		c16.6,18.1,28.9,30.5,44.9,34.3c15.8,3.7,28.9,3,43-4.2c31.3-16,60.3-36.7,95.7-37.6c16.4-40.2,14.7-73.8,6.8-112.7
		c-5.4-26.6-7.5-51.7-9.2-78.8c-6.6,27.9-7.9,52.4-3,80.2c5.9,33.5,10.5,70.5-6,99.9c-32,2.4-59.4,21.9-88.2,36.8
		c-11.6,6-23.6,6.6-36.5,3.1c-11.9-3.3-19.9-11.1-32.7-25.9c-0.2-14.8,3.1-21.7,10-35.1c11-21.6,23-41.7,36.3-62.9
		c-16.2,19.6-31.6,36-44.4,55.7c-4.9-13.9-11.9-21-23.4-36.7c-11.3-15.3-12.5-22-4-39.7c8.5-17.8,15.7-33.5,30.2-49.1
		c25-27,47.9-57,75.2-83.6c14.8-14.4,20.9-13.9,40.6-16.9c17.8-2.7,35.2-6.1,53.3-10.3c-17.5,1.6-34.5,2.2-51.6,2.7
		c-0.2,0-0.4,0-0.5,0c16.8-21.5,26.6-33.4,53.9-45.3c67.2-29.2,109.9-32.3,162.7,12c13.7,11.5,25.6,22.7,39.5,32.6
		c-5,0.4-9.4,1.3-15.1,3.6c7-1.3,15,0,22.3,1.3c2,1.3,4.1,2.6,6.3,3.9c9.8,5.8,15.4,9,22,18.2c7,9.8,12.8,19.5,18,30.2
		c-3.4-1.2-6.2-2.2-8.7-3c-1.9-0.9-3.9-1.4-6-1.6c-4.2-0.4-8.3,0.6-11.7,2.7c-0.1,0.1-0.3,0.1-0.4,0.2c-5.4,2.6-13.8,5.6-19.4,6.6
		c2.9,1,9.2,1.4,12.2,0.2c0.4-0.2,0.8-0.3,1.2-0.4c-1.3,2.3-2.2,4.9-2.5,7.7c-0.4,3.7,0.4,7.3,2,10.4c0,0,0,0,0,0
		c0.5,1.2,1.2,2.3,2,3.1c-2.6,0.9-5.2,2-7.9,3.2c12.5-1.9,23.8-2.2,36-0.6c0.8,3.9,1.6,7.9,2.4,12.1c-1.5,0.1-3,0.2-4.5,0.4
		c-0.1,0-0.2,0-0.4,0c-5.8-4.6-12.2-3.8-21-1.8c-26.8,6.1-20.5,21.1-32.8,43.8c12.8-15.6,11.8-32,32.7-36.9
		c4.9-1.1,8.2-2.6,11.4-2.1c-5.9,3-11,7.9-13.1,13.6c-5.7,16.2-2.2,29.8-8.5,44.8c7.8-13.5,8.3-26.6,15.2-40.8
		c2.5-5.1,11.8-13.3,17.5-13.4c1.6,0,3.1-0.1,4.7-0.1c1.4,9,2.2,17.9,1.7,25.3c-1,13.5-4.5,33.5-6.6,41.2
		c7.1-9.1,10.3-28.3,13.4-41.8c3.2-14.1,2.4-31-0.4-46.1c-3.9-20.7,17.5-17.4,29.9-27.1c9.1-7.2,15.4-18.7,23.8-26.8
		c8.3-8.1,21.3,3.8,24.6,11.7c14.1,34.2,20.6,88,16.8,122.5c-4.2,38.7-22.9,80.9-57,100C682.7,473,631.4,458.1,588.2,443.6
		L588.2,443.6z M526.4,615.4c-1.4,16-6.7,17-20.8,16.8c-6.4-0.1-31.7-0.2-38.2-0.8c-9.1-0.8-14.2-1.6-17-3.7
		c14.3-10.5,38.6-53.8,43.3-68.7c5-15.7,10.5-29.5,14.6-44c1.9,6.1,3.4,12.1,6.1,18.6c4.6,10.8,6.8,17.5,7.1,29.1
		c0.3,12.2,0.7,24.4,1,36.7C526.4,606.1,527.1,607.6,526.4,615.4L526.4,615.4z M96.4,494.5c9.1,31.4,24.5,62.2,41.7,88.2
		c0,0.1,0,0.3,0,0.5c-1.1,4.5-2.3,8.8-4.9,12.3c-12.2,16.4-43.4-7.7-52.4-16.9c-9.9-10.1-16.5-22-18-33.2c-1.1-8.2,0-8.4,5.7-14.1
		c7.7-7.8,15.3-15.5,23-23.3C93,503.4,94.7,499,96.4,494.5L96.4,494.5z M79.1,297.1c-2.3,5-4,8.8-5.1,12.7
		c-4.9,16.9,2.2,31.9-13.1,44.2c7.2,14.5,6.9,20.3,23.6,13.6c6.5-2.6,11.8-6.2,16.5-10.5c-2.3,5.9-4.4,11.9-6.3,18.1
		c-0.3,1-0.6,2.1-0.9,3.1c-12,5.1-27.7,8.3-33.7-4.3c-2.9-6.1-4.6-12.1-6.7-19.8C33.5,333.7,63,306.8,79.1,297.1L79.1,297.1z
		 M88.7,318.7c-2.4-2.4-4.4-4.1-7.5-3.7c0.3-2.1,0.6-4.1,1.1-5.9c0.3-1,0.5-1.9,0.8-2.9C87.2,308.6,88.3,312.9,88.7,318.7
		L88.7,318.7z M679.9,242.4c0.7,1.6,1.5,3.2,2.2,4.8c-0.6,0.4-1.2,0.9-1.7,1.4c-1-2.3-2.4-4.3-4.1-6.1
		C677.5,242.5,678.7,242.5,679.9,242.4L679.9,242.4z M110.7,335.2L110.7,335.2L110.7,335.2L110.7,335.2z M46.6,356.8L46.6,356.8
		L46.6,356.8L46.6,356.8z M262.3,582.4L262.3,582.4L262.3,582.4L262.3,582.4z M440,635.4L440,635.4L440,635.4L440,635.4L440,635.4z
		 M512.2,498.2L512.2,498.2L512.2,498.2L512.2,498.2L512.2,498.2z M81.1,359.7L81.1,359.7L81.1,359.7l-0.1-0.3L81.1,359.7
		L81.1,359.7z M774.4,416.7L774.4,416.7L774.4,416.7L774.4,416.7L774.4,416.7z"/>
	<path class="st0" d="M11.5,354.8c3.1-35.5,10-50.9,35.3-77.6C15.2,299.5,7.2,309.7,11.5,354.8"/>
	<path class="st0" d="M3.4,325.8c3.5-16,6.7-22,16.6-35.1C4,301.8,1.9,306.4,3.4,325.8"/>
	<path class="st0" d="M374.8,102.9c-19,4.6-22.6,8.1-28.3,26.7C355.6,116,360.8,111.5,374.8,102.9"/>
	<path class="st0" d="M404.7,100.2c-37.6,9.2-48.7,15.8-61.2,59.4C359.4,127.7,371.4,115.9,404.7,100.2"/>
	<path class="st0" d="M485.7,259.1c4-17.8,11.1-34.9,38.7-48.1C487.8,220.2,481,235.5,485.7,259.1"/>
	<path class="st0" d="M718.3,260.4c21.7-7.7,32.1-25.1,37.3-45.6c-8.5,17.2-21.6,31.5-39.3,40.3c-9.5,4.7-15.6,3.1-26.3,2.1
		C700.8,260.2,707.7,264.2,718.3,260.4"/>
	<path class="st0" d="M570.8,277.8c-2.9-6-7.9-10.4-13.8-12.5c5.3-2.8,10.5-5.8,14.6-9.5c-11.9,5.5-25.8,4.2-36,11.1
		c-9,6.1-21.4,25.4-30.6,33.6c6.6-2.6,13-7,18.9-11.7c0,3.5,0.8,7,2.4,10.4c2.4,5,6.2,8.8,10.8,11.2c-3.3,4.3-6,9.2-8,14.6
		c17.4-20.7,42.7-36.3,66.5-42.9c-6.6-0.1-14.5,1.1-22.5,3.8C572.8,283,572,280.3,570.8,277.8"/>
	<path class="st0" d="M545.7,433.9c-0.8,5.4-2,12-2.9,17.4c2.3-6.1,5-13.1,7.6-18.9c2.8-6.1,4.4-6.7,10.3-9.9
		c4.2-2.3,11.8-5.4,16-7.7c-4.3,0.7-12.1,2.3-16.4,3C548.9,419.8,547.5,422.5,545.7,433.9"/>
	<path class="st0" d="M348.4,227.3c-13.4,13.3-26.4,58.7-30.6,76.9c6.6-15.1,23-57.4,35.5-68.1c3.5-3,5.9-4.8,8.5-6.1
		c-9,15.1-8.3,18.9-5.2,39.1c2.7-20.6,9.8-28.5,21.5-43.9c12.8-3.2,24.8-7.1,37.9-12.2c-14.8,1.7-29.6,3.2-44.4,4.6
		C359.3,218.8,357.3,218.6,348.4,227.3"/>
</g>
</svg>
