<?xml version="1.0" encoding="utf-8"?>
<!-- Generator: Adobe Illustrator 23.0.2, SVG Export Plug-In . SVG Version: 6.00 Build 0)  -->
<svg version="1.1" id="Layer_1" xmlns="http://www.w3.org/2000/svg" xmlns:xlink="http://www.w3.org/1999/xlink" x="0px" y="0px"
	 viewBox="0 0 14 16" style="enable-background:new 0 0 14 16;" xml:space="preserve">
<style type="text/css">
	.st0{fill:#F5EFE0;}
</style>
<path class="st0" d="M13.7,6.3c-0.2-1-0.7-1.7-1.7-1.7h-1.3v1.5c0,1.2-1,2.1-2.1,2.1H5.4C4.5,8.2,3.7,9,3.7,9.9v3.2
	c0,0.9,0.8,1.4,1.7,1.7c1.1,0.3,2.1,0.4,3.3,0c0.8-0.2,1.7-0.7,1.7-1.7v-1.3H7.1v-0.4h5c1,0,1.3-0.7,1.7-1.7
	C14.1,8.6,14.1,7.6,13.7,6.3z M8.9,12.6c0.3,0,0.6,0.3,0.6,0.6c0,0.4-0.3,0.6-0.6,0.6s-0.6-0.3-0.6-0.6C8.3,12.9,8.6,12.6,8.9,12.6z
	 M5.2,7.8h3.3c0.9,0,1.7-0.8,1.7-1.7V2.9c0-0.9-0.8-1.6-1.7-1.7C7.5,1,6.2,1,5.2,1.1C3.8,1.4,3.6,1.9,3.6,2.9v1.3h3.3v0.4H2.3
	c-1,0-1.8,0.6-2.1,1.7c-0.3,1.3-0.3,2.1,0,3.4c0.2,1,0.8,1.7,1.8,1.7h1.1V9.8C3.2,8.7,4.1,7.8,5.2,7.8z M5,3.3
	C4.7,3.3,4.4,3,4.4,2.7C4.4,2.3,4.7,2,5,2s0.6,0.3,0.6,0.6S5.4,3.3,5,3.3z"/>
</svg>
